<svg width="263" height="71" viewBox="0 0 263 71" fill="none" xmlns="http://www.w3.org/2000/svg">
<path d="M48.196 0.322021C49.496 0.322021 50.614 0.790022 51.55 1.72602C52.538 2.61002 53.032 3.72802 53.032 5.08002V50.242C53.032 51.594 52.59 52.738 51.706 53.674C50.822 54.558 49.652 55 48.196 55C46.74 55 45.544 54.558 44.608 53.674C43.724 52.79 43.282 51.646 43.282 50.242V18.808L30.412 38.464C29.892 39.088 29.294 39.608 28.618 40.024C27.942 40.388 27.24 40.544 26.512 40.492C25.836 40.544 25.16 40.388 24.484 40.024C23.808 39.608 23.21 39.088 22.69 38.464L9.81998 18.106V50.242C9.81998 51.646 9.40398 52.79 8.57198 53.674C7.73998 54.558 6.64798 55 5.29598 55C3.99598 55 2.92998 54.558 2.09798 53.674C1.26598 52.738 0.849976 51.594 0.849976 50.242V5.08002C0.849976 3.78002 1.31798 2.66202 2.25398 1.72602C3.24198 0.790022 4.41198 0.322021 5.76398 0.322021C6.54398 0.322021 7.32398 0.530022 8.10398 0.946023C8.88398 1.31002 9.48198 1.80402 9.89798 2.42802L26.902 28.558L44.374 2.42802C44.79 1.80402 45.336 1.31002 46.012 0.946023C46.74 0.530022 47.468 0.322021 48.196 0.322021Z" fill="black"/>
<path d="M94.9442 13.27C96.2962 13.27 97.4142 13.738 98.2982 14.674C99.1822 15.558 99.6242 16.676 99.6242 18.028V51.178C99.6242 57.938 97.8042 62.852 94.1642 65.92C90.5242 69.04 85.6622 70.6 79.5782 70.6C77.8102 70.6 75.9902 70.444 74.1182 70.132C72.2982 69.872 70.8162 69.508 69.6722 69.04C67.1242 67.948 65.8502 66.44 65.8502 64.516C65.8502 64.152 65.9282 63.736 66.0842 63.268C66.3962 62.124 66.9162 61.24 67.6442 60.616C68.4242 60.044 69.2562 59.758 70.1402 59.758C70.6602 59.758 71.1542 59.836 71.6222 59.992C71.9862 60.148 72.6102 60.408 73.4942 60.772C74.4302 61.136 75.3922 61.422 76.3802 61.63C77.4202 61.89 78.4862 62.02 79.5782 62.02C83.2702 62.02 85.9742 61.214 87.6902 59.602C89.4582 58.042 90.3422 55.338 90.3422 51.49V50.71C87.6382 54.09 83.4262 55.78 77.7062 55.78C75.0022 55.78 72.6102 55.156 70.5302 53.908C68.4502 52.608 66.8382 50.84 65.6942 48.604C64.5502 46.316 63.9782 43.716 63.9782 40.804V18.028C63.9782 16.676 64.4202 15.558 65.3042 14.674C66.1882 13.738 67.3062 13.27 68.6582 13.27C70.0102 13.27 71.1282 13.738 72.0122 14.674C72.8962 15.558 73.3382 16.676 73.3382 18.028V37.996C73.3382 41.272 74.0402 43.638 75.4442 45.094C76.9002 46.498 79.0062 47.2 81.7622 47.2C84.4662 47.2 86.5462 46.42 88.0022 44.86C89.5102 43.248 90.2642 40.96 90.2642 37.996V18.028C90.2642 16.676 90.7062 15.558 91.5902 14.674C92.4742 13.738 93.5922 13.27 94.9442 13.27Z" fill="black"/>
<path d="M153.566 47.824C154.19 48.656 154.502 49.618 154.502 50.71C154.502 52.062 154.008 53.18 153.02 54.064C152.032 54.948 150.966 55.39 149.822 55.39C148.314 55.39 147.04 54.714 146 53.362L132.116 34.876L118.622 53.206C117.582 54.662 116.282 55.39 114.722 55.39C113.578 55.39 112.59 54.974 111.758 54.142C110.926 53.31 110.51 52.348 110.51 51.256C110.51 50.112 110.9 49.046 111.68 48.058L126.734 27.7L111.68 7.73202C111.004 6.90001 110.666 5.96401 110.666 4.92402C110.666 3.62401 111.16 2.50601 112.148 1.57001C113.136 0.634014 114.228 0.166016 115.424 0.166016C116.932 0.166016 118.206 0.842015 119.246 2.19401L132.974 20.446L146.39 2.58401C146.91 1.85601 147.508 1.31001 148.184 0.946015C148.86 0.530014 149.536 0.322014 150.212 0.322014C151.356 0.322014 152.37 0.790014 153.254 1.72601C154.138 2.61002 154.58 3.59801 154.58 4.69001C154.58 5.67801 154.242 6.61401 153.566 7.49801L138.356 27.544L153.566 47.824Z" fill="#0057FF"/>
<path d="M211.307 0.322014C212.607 0.322014 213.725 0.790014 214.661 1.72601C215.649 2.61002 216.143 3.72801 216.143 5.08001V50.242C216.143 51.594 215.701 52.738 214.817 53.674C213.933 54.558 212.763 55 211.307 55C209.851 55 208.655 54.558 207.719 53.674C206.835 52.79 206.393 51.646 206.393 50.242V18.808L193.523 38.464C193.003 39.088 192.405 39.608 191.729 40.024C191.053 40.388 190.351 40.544 189.623 40.492C188.947 40.544 188.271 40.388 187.595 40.024C186.919 39.608 186.321 39.088 185.801 38.464L172.931 18.106V50.242C172.931 51.646 172.515 52.79 171.683 53.674C170.851 54.558 169.759 55 168.407 55C167.107 55 166.041 54.558 165.209 53.674C164.377 52.738 163.961 51.594 163.961 50.242V5.08001C163.961 3.78001 164.429 2.66201 165.365 1.72601C166.353 0.790014 167.523 0.322014 168.875 0.322014C169.655 0.322014 170.435 0.530014 171.215 0.946015C171.995 1.31001 172.593 1.80401 173.009 2.42801L190.013 28.558L207.485 2.42801C207.901 1.80401 208.447 1.31001 209.123 0.946015C209.851 0.530014 210.579 0.322014 211.307 0.322014Z" fill="#0057FF"/>
<path d="M257.978 45.874C259.33 45.874 260.448 46.316 261.332 47.2C262.268 48.032 262.736 49.124 262.736 50.476C262.736 51.776 262.268 52.868 261.332 53.752C260.448 54.584 259.33 55 257.978 55H232.628C231.276 55 230.132 54.558 229.196 53.674C228.312 52.738 227.87 51.594 227.87 50.242V5.15801C227.87 3.80601 228.338 2.68801 229.274 1.80401C230.21 0.868013 231.406 0.400013 232.862 0.400013C234.162 0.400013 235.28 0.868013 236.216 1.80401C237.152 2.68801 237.62 3.80601 237.62 5.15801V45.874H257.978Z" fill="#0057FF"/>
</svg>
